<svg width="25" height="25" viewBox="0 0 25 25" fill="none" xmlns="http://www.w3.org/2000/svg">
<path d="M11.3823 4.57935H4.38232C3.85189 4.57935 3.34318 4.79006 2.96811 5.16513C2.59304 5.5402 2.38232 6.04891 2.38232 6.57935V20.5793C2.38232 21.1098 2.59304 21.6185 2.96811 21.9936C3.34318 22.3686 3.85189 22.5793 4.38232 22.5793H18.3823C18.9128 22.5793 19.4215 22.3686 19.7965 21.9936C20.1716 21.6185 20.3823 21.1098 20.3823 20.5793V13.5793" stroke="black" stroke-width="2" stroke-linecap="round" stroke-linejoin="round"/>
<path d="M18.8823 3.07933C19.2801 2.6815 19.8197 2.45801 20.3823 2.45801C20.9449 2.45801 21.4845 2.6815 21.8823 3.07933C22.2801 3.47715 22.5036 4.01672 22.5036 4.57933C22.5036 5.14194 22.2801 5.6815 21.8823 6.07933L12.3823 15.5793L8.38232 16.5793L9.38232 12.5793L18.8823 3.07933Z" stroke="black" stroke-width="2" stroke-linecap="round" stroke-linejoin="round"/>
</svg>
