<svg width="25" height="25" viewBox="0 0 25 25" fill="none" xmlns="http://www.w3.org/2000/svg">
<path d="M3.16064 6.86823H5.16064H21.1606" stroke="black" stroke-width="2" stroke-linecap="round" stroke-linejoin="round"/>
<path d="M19.1606 6.86823V20.8682C19.1606 21.3987 18.9499 21.9074 18.5749 22.2824C18.1998 22.6575 17.6911 22.8682 17.1606 22.8682H7.16064C6.63021 22.8682 6.1215 22.6575 5.74643 22.2824C5.37136 21.9074 5.16064 21.3987 5.16064 20.8682V6.86823M8.16064 6.86823V4.86823C8.16064 4.33779 8.37136 3.82908 8.74643 3.45401C9.1215 3.07894 9.63021 2.86823 10.1606 2.86823H14.1606C14.6911 2.86823 15.1998 3.07894 15.5749 3.45401C15.9499 3.82908 16.1606 4.33779 16.1606 4.86823V6.86823" stroke="black" stroke-width="2" stroke-linecap="round" stroke-linejoin="round"/>
<path d="M10.1606 11.8682V17.8682" stroke="black" stroke-width="2" stroke-linecap="round" stroke-linejoin="round"/>
<path d="M14.1606 11.8682V17.8682" stroke="black" stroke-width="2" stroke-linecap="round" stroke-linejoin="round"/>
</svg>
