<svg width="39" height="44" viewBox="0 0 39 44" fill="none" xmlns="http://www.w3.org/2000/svg">
<path d="M5.96 44C5.74667 44 5.42667 43.9787 5 43.936C4.57333 43.8507 4.06133 43.7867 3.464 43.744L2.12 43.424C1.90667 43.3813 1.736 43.3387 1.608 43.296C1.52267 43.2107 1.50133 43.1467 1.544 43.104C1.544 41.9947 1.48 40.5227 1.352 38.688C1.352 38.048 1.33067 37.4933 1.288 37.024C1.24533 36.512 1.20267 36.0853 1.16 35.744L1.032 32.992C1.032 32.2667 0.989333 31.3493 0.904 30.24L0.84 28.256C0.84 26.6347 0.818667 25.376 0.776 24.48C0.733334 23.584 0.712 21.7067 0.712 18.848C0.712 16.16 0.733334 13.3867 0.776 10.528C0.818667 7.66933 0.946667 4.96 1.16 2.4C1.16 1.93067 1.672 1.54667 2.696 1.248C3.336 1.16267 4.40267 1.12 5.896 1.12C9.352 1.12 11.8907 1.056 13.512 0.927998C18.5467 0.842665 22.344 0.799999 24.904 0.799999H27.72C31.2187 0.885331 33.9067 1.01333 35.784 1.184C36.4667 1.184 36.9573 1.99466 37.256 3.616C37.384 3.91467 37.5333 4.68267 37.704 5.92C37.832 6.56 38.0027 7.34933 38.216 8.288C38.2587 8.544 38.2587 8.8 38.216 9.056C38.216 9.26933 38.216 9.39733 38.216 9.44C38.1733 9.86666 37.9387 10.08 37.512 10.08C37.3413 10.0373 37.0853 10.016 36.744 10.016C34.952 10.016 32.7547 10.1653 30.152 10.464L26.76 10.72C25.352 10.8907 24.2427 10.9973 23.432 11.04C23.304 11.04 23.1333 11.296 22.92 11.808C22.7493 12.3627 22.5573 13.6427 22.344 15.648L22.216 17.248C22.216 17.8027 22.28 18.1653 22.408 18.336C22.536 18.464 22.8133 18.528 23.24 18.528H28.936C30.6 18.528 32.4987 18.6347 34.632 18.848H35.4C35.9547 18.976 36.296 19.1893 36.424 19.488C36.5947 19.744 36.7013 20.0213 36.744 20.32L37 26.016V26.208C37 26.9333 36.232 27.36 34.696 27.488C33.8 27.7013 32.0933 27.808 29.576 27.808C27.4 27.808 25.992 27.7867 25.352 27.744C24.1147 27.744 23.368 27.7653 23.112 27.808C22.6427 27.936 22.344 28.192 22.216 28.576C22.088 28.9173 22.024 29.5147 22.024 30.368C22.024 30.9227 21.9813 31.712 21.896 32.736C21.8533 33.248 21.832 34.0587 21.832 35.168C24.6053 35.168 26.6533 35.1253 27.976 35.04C29.4267 34.912 31.4747 34.848 34.12 34.848C34.2907 34.848 34.4613 34.9973 34.632 35.296C34.8453 35.7227 35.1867 36.6827 35.656 38.176C35.912 39.0293 36.168 40.096 36.424 41.376C36.5093 41.6747 36.552 41.9947 36.552 42.336C36.552 43.232 36.1253 43.68 35.272 43.68C34.1627 43.68 32.6693 43.7227 30.792 43.808C29.8107 43.8933 28.2747 43.936 26.184 43.936C21.704 43.936 18.3333 43.9573 16.072 44H5.96Z" fill="white"/>
</svg>
